<svg style="display: none" xmlns="http://www.w3.org/2000/svg">
  <symbol fill="none" xmlns="http://www.w3.org/2000/svg" viewBox="0 0 61 60" id="leaf">
    <rect x="0.5" width="60" height="60" fill="#68B738"></rect>
    <g clip-path="url(#clip0_95_18)">
      <path d="M43.3438 16.767C43.2434 16.317 42.8647 16 42.4325 16C42.4306 16 42.4288 16 42.4269 16C37.4891 16.033 25.4816 16.916 20.6337 24.38C18.1156 28.258 17.8991 33.293 19.9897 39.345C20.0056 39.392 20.0384 39.424 20.06 39.467C19.3128 41.44 19.0231 42.753 19.0156 42.79C18.9069 43.33 19.2303 43.862 19.7366 43.978C19.8022 43.993 19.8678 44 19.9334 44C20.3656 44 20.7547 43.679 20.8494 43.21C20.8691 43.108 23.2578 32.837 31.7028 26.832C32.1341 26.526 32.2503 25.905 31.9625 25.445C31.6747 24.985 31.0934 24.86 30.6622 25.168C25.8734 28.573 22.9241 33.176 21.1897 36.824C19.9484 32.246 20.2737 28.447 22.1759 25.519C25.9194 19.755 34.7984 18.365 40.1581 18.071C39.005 19.872 37.745 23.174 37.745 29C37.745 32.12 36.9153 34.522 35.2803 36.14C32.6591 38.731 28.4009 38.974 25.2866 38.724C24.7691 38.679 24.32 39.095 24.2806 39.646C24.2412 40.196 24.6284 40.676 25.1441 40.718C25.7675 40.769 26.4331 40.8 27.125 40.8C30.2956 40.8 33.9941 40.137 36.5544 37.606C38.5888 35.595 39.62 32.7 39.62 29.001C39.62 19.902 42.8356 17.905 42.8516 17.896C43.2416 17.687 43.4459 17.219 43.3438 16.767Z" fill="white"></path>
    </g>
    <defs>
      <clipPath id="clip0_95_18">
        <rect width="30" height="32" fill="white" transform="translate(15.5 14)"></rect>
      </clipPath>
    </defs>
  </symbol>
  <symbol fill="none" xmlns="http://www.w3.org/2000/svg" viewBox="0 0 61 60" id="eat">
    <rect x="0.5" width="60" height="60" fill="#68B738"></rect>
    <path fill-rule="evenodd" clip-rule="evenodd" d="M37.1173 15.0761C37.491 14.9214 37.9211 15.0069 38.2071 15.2929C39.1156 16.2014 40.3038 18.1706 41.2659 21.2108C42.2373 24.2804 43 28.5081 43 34C43 34.5523 42.5523 35 42 35H38.5V44C38.5 44.5523 38.0523 45 37.5 45C36.9477 45 36.5 44.5523 36.5 44V16C36.5 15.5956 36.7436 15.2309 37.1173 15.0761ZM38.5 33H40.9912C40.9053 28.1836 40.2051 24.4875 39.3591 21.8142C39.0807 20.9346 38.7885 20.1715 38.5 19.519V33Z" fill="white"></path>
    <path fill-rule="evenodd" clip-rule="evenodd" d="M24.5 15C25.0523 15 25.5 15.4477 25.5 16V44C25.5 44.5523 25.0523 45 24.5 45C23.9477 45 23.5 44.5523 23.5 44V16C23.5 15.4477 23.9477 15 24.5 15Z" fill="white"></path>
    <path fill-rule="evenodd" clip-rule="evenodd" d="M20 15C20.5523 15 21 15.4477 21 16V21.5C21 22.0569 21.192 22.8152 21.7009 23.4166C22.18 23.9828 23.0145 24.5 24.4999 24.5C25.0522 24.5 25.4999 24.9477 25.4999 25.5C25.4999 26.0523 25.0522 26.5 24.4999 26.5C22.4855 26.5 21.07 25.7672 20.1741 24.7084C19.308 23.6848 19 22.4431 19 21.5V16C19 15.4477 19.4477 15 20 15Z" fill="white"></path>
    <path fill-rule="evenodd" clip-rule="evenodd" d="M29 15C28.4477 15 28 15.4477 28 16V21.5C28 22.0569 27.808 22.8152 27.2991 23.4166C26.82 23.9828 25.9854 24.5 24.4999 24.5C23.9476 24.5 23.5001 24.9477 23.5001 25.5C23.5001 26.0523 23.9476 26.5 24.4999 26.5C26.5144 26.5 27.93 25.7672 28.8259 24.7084C29.692 23.6848 30 22.4431 30 21.5V16C30 15.4477 29.5523 15 29 15Z" fill="white"></path>
  </symbol>
  <symbol fill="none" xmlns="http://www.w3.org/2000/svg" viewBox="0 0 61 60" id="alarm">
    <rect x="0.5" width="60" height="60" fill="#68B738"></rect>
    <ellipse cx="35.7042" cy="24.3299" rx="1.0873" ry="1.08512" fill="white"></ellipse>
    <ellipse cx="24.8311" cy="24.3299" rx="1.08731" ry="1.08512" fill="white"></ellipse>
    <ellipse cx="24.8311" cy="37.3512" rx="1.08731" ry="1.08512" fill="white"></ellipse>
    <ellipse cx="30.2677" cy="39.5215" rx="1.0873" ry="1.08512" fill="white"></ellipse>
    <ellipse cx="21.5692" cy="30.7748" rx="1.08731" ry="1.08512" fill="white"></ellipse>
    <ellipse cx="38.9661" cy="30.7748" rx="1.0873" ry="1.08512" fill="white"></ellipse>
    <ellipse cx="35.7042" cy="37.3512" rx="1.0873" ry="1.08512" fill="white"></ellipse>
    <mask id="path-9-inside-1_95_39" fill="white">
      <path fill-rule="evenodd" clip-rule="evenodd" d="M35.4215 42.0581C35.8298 41.8622 36.3226 41.9298 36.6385 42.2542L38.4644 44.1292C38.7319 44.4039 39.1734 44.4039 39.441 44.1292C39.6987 43.8645 39.6987 43.4427 39.441 43.1781L38.0843 41.7849C37.6584 41.3475 37.7228 40.6356 38.182 40.2333C40.8238 37.9195 42.5 34.4688 42.5 30.6145C42.5 23.6477 37.0235 18 30.2678 18C23.5122 18 18.0356 23.6477 18.0356 30.6145C18.0356 34.4288 19.6773 37.8477 22.2717 40.1608C22.7244 40.5644 22.7849 41.2708 22.3617 41.7054L20.9276 43.1781C20.6698 43.4427 20.6698 43.8645 20.9276 44.1291C21.1951 44.4039 21.6366 44.4039 21.9042 44.1292L23.7838 42.199C24.1025 41.8718 24.6004 41.8061 25.0102 42.0076C26.603 42.7907 28.3858 43.229 30.2678 43.229C32.109 43.229 33.8553 42.8095 35.4215 42.0581ZM30.2678 41.8274C36.2728 41.8274 41.1409 36.8072 41.1409 30.6145C41.1409 24.4218 36.2728 19.4016 30.2678 19.4016C24.2628 19.4016 19.3948 24.4218 19.3948 30.6145C19.3948 36.8072 24.2628 41.8274 30.2678 41.8274ZM29.5083 30.298V26.5001V22.9409C29.5083 22.5094 29.8581 22.1596 30.2895 22.1596C30.721 22.1596 31.0708 22.5094 31.0708 22.9409V26.5001V30.298V30.8406V31.1226C31.0708 31.5661 30.7113 31.9257 30.2677 31.9257C29.8483 31.9257 29.5083 31.5857 29.5083 31.1663V30.8406V30.298Z"></path>
    </mask>
    <path fill-rule="evenodd" clip-rule="evenodd" d="M35.4215 42.0581C35.8298 41.8622 36.3226 41.9298 36.6385 42.2542L38.4644 44.1292C38.7319 44.4039 39.1734 44.4039 39.441 44.1292C39.6987 43.8645 39.6987 43.4427 39.441 43.1781L38.0843 41.7849C37.6584 41.3475 37.7228 40.6356 38.182 40.2333C40.8238 37.9195 42.5 34.4688 42.5 30.6145C42.5 23.6477 37.0235 18 30.2678 18C23.5122 18 18.0356 23.6477 18.0356 30.6145C18.0356 34.4288 19.6773 37.8477 22.2717 40.1608C22.7244 40.5644 22.7849 41.2708 22.3617 41.7054L20.9276 43.1781C20.6698 43.4427 20.6698 43.8645 20.9276 44.1291C21.1951 44.4039 21.6366 44.4039 21.9042 44.1292L23.7838 42.199C24.1025 41.8718 24.6004 41.8061 25.0102 42.0076C26.603 42.7907 28.3858 43.229 30.2678 43.229C32.109 43.229 33.8553 42.8095 35.4215 42.0581ZM30.2678 41.8274C36.2728 41.8274 41.1409 36.8072 41.1409 30.6145C41.1409 24.4218 36.2728 19.4016 30.2678 19.4016C24.2628 19.4016 19.3948 24.4218 19.3948 30.6145C19.3948 36.8072 24.2628 41.8274 30.2678 41.8274ZM29.5083 30.298V26.5001V22.9409C29.5083 22.5094 29.8581 22.1596 30.2895 22.1596C30.721 22.1596 31.0708 22.5094 31.0708 22.9409V26.5001V30.298V30.8406V31.1226C31.0708 31.5661 30.7113 31.9257 30.2677 31.9257C29.8483 31.9257 29.5083 31.5857 29.5083 31.1663V30.8406V30.298Z" fill="white"></path>
    <path d="M23.7838 42.199L26.6495 44.9896L23.7838 42.199ZM25.0102 42.0076L26.775 38.418L25.0102 42.0076ZM21.9042 44.1292L19.0385 41.3385L21.9042 44.1292ZM20.9276 43.1781L23.7932 45.9687L20.9276 43.1781ZM38.0843 41.7849L35.2186 44.5756L38.0843 41.7849ZM38.182 40.2333L35.5465 37.2243L38.182 40.2333ZM22.2717 40.1608L19.6097 43.1464L22.2717 40.1608ZM22.3617 41.7054L19.4961 38.9147L22.3617 41.7054ZM39.441 43.1781L42.3067 40.3874L39.441 43.1781ZM38.4644 44.1292L41.3301 41.3385L38.4644 44.1292ZM36.6385 42.2542L33.7728 45.0449L36.6385 42.2542ZM35.4215 42.0581L33.6913 38.4516L35.4215 42.0581ZM33.7728 45.0449L35.5987 46.9198L41.3301 41.3385L39.5042 39.4636L33.7728 45.0449ZM42.3067 40.3874L40.95 38.9942L35.2186 44.5756L36.5753 45.9688L42.3067 40.3874ZM40.8175 43.2423C44.3075 40.1855 46.5 35.6466 46.5 30.6145H38.5C38.5 33.2911 37.3401 35.6534 35.5465 37.2243L40.8175 43.2423ZM46.5 30.6145C46.5 21.5555 39.3478 14 30.2678 14V22C34.6992 22 38.5 25.7399 38.5 30.6145H46.5ZM30.2678 14C21.1879 14 14.0356 21.5555 14.0356 30.6145H22.0356C22.0356 25.7399 25.8365 22 30.2678 22V14ZM14.0356 30.6145C14.0356 35.5943 16.183 40.0912 19.6097 43.1464L24.9336 37.1752C23.1716 35.6042 22.0356 33.2633 22.0356 30.6145H14.0356ZM19.4961 38.9147L18.0619 40.3874L23.7932 45.9687L25.2274 44.496L19.4961 38.9147ZM24.7699 46.9198L26.6495 44.9896L20.9181 39.4083L19.0385 41.3385L24.7699 46.9198ZM23.2454 45.5972C25.3722 46.6429 27.7573 47.229 30.2678 47.229V39.229C29.0143 39.229 27.8337 38.9385 26.775 38.418L23.2454 45.5972ZM30.2678 47.229C32.7236 47.229 35.0598 46.6681 37.1517 45.6645L33.6913 38.4516C32.6508 38.9508 31.4944 39.229 30.2678 39.229V47.229ZM30.2678 45.8274C38.5971 45.8274 45.1409 38.8994 45.1409 30.6145H37.1409C37.1409 34.715 33.9485 37.8274 30.2678 37.8274V45.8274ZM45.1409 30.6145C45.1409 22.3296 38.5971 15.4016 30.2678 15.4016V23.4016C33.9485 23.4016 37.1409 26.514 37.1409 30.6145H45.1409ZM30.2678 15.4016C21.9385 15.4016 15.3948 22.3296 15.3948 30.6145H23.3948C23.3948 26.514 26.5871 23.4016 30.2678 23.4016V15.4016ZM15.3948 30.6145C15.3948 38.8994 21.9385 45.8274 30.2678 45.8274V37.8274C26.5871 37.8274 23.3948 34.715 23.3948 30.6145H15.3948ZM27.0708 30.298V30.8406H35.0708V30.298H27.0708ZM27.0708 30.8406V31.1226H35.0708V30.8406H27.0708ZM33.5083 31.1663V30.8406H25.5083V31.1663H33.5083ZM33.5083 30.8406V30.298H25.5083V30.8406H33.5083ZM33.5083 30.298V26.5001H25.5083V30.298H33.5083ZM33.5083 26.5001V22.9409H25.5083V26.5001H33.5083ZM27.0708 22.9409V26.5001H35.0708V22.9409H27.0708ZM27.0708 26.5001V30.298H35.0708V26.5001H27.0708ZM30.2895 18.1596C27.6489 18.1596 25.5083 20.3003 25.5083 22.9409H33.5083C33.5083 24.7186 32.0672 26.1596 30.2895 26.1596V18.1596ZM27.0708 31.1226C27.0708 29.357 28.5021 27.9257 30.2677 27.9257V35.9257C32.9204 35.9257 35.0708 33.7753 35.0708 31.1226H27.0708ZM26.6495 44.9896C25.6569 46.009 24.2521 46.0922 23.2454 45.5972L26.775 38.418C24.9487 37.52 22.548 37.7346 20.9181 39.4083L26.6495 44.9896ZM18.0619 46.9198C19.8997 48.807 22.9321 48.807 24.7699 46.9198L19.0385 41.3385C20.3412 40.0008 22.4906 40.0008 23.7933 41.3385L18.0619 46.9198ZM18.0619 40.3874C16.2917 42.2051 16.2917 45.1021 18.0619 46.9198L23.7933 41.3385C25.048 42.6269 25.0479 44.6803 23.7932 45.9687L18.0619 40.3874ZM40.95 38.9942C42.2927 40.3731 41.894 42.2994 40.8175 43.2423L35.5465 37.2243C33.5515 38.9717 33.024 42.3219 35.2186 44.5756L40.95 38.9942ZM30.2895 26.1596C28.5119 26.1596 27.0708 24.7186 27.0708 22.9409H35.0708C35.0708 20.3003 32.9302 18.1596 30.2895 18.1596V26.1596ZM19.6097 43.1464C18.5463 42.1983 18.1626 40.2839 19.4961 38.9147L25.2274 44.496C27.4071 42.2577 26.9025 38.9306 24.9336 37.1752L19.6097 43.1464ZM42.3067 46.9198C44.0768 45.1021 44.0768 42.2051 42.3067 40.3874L36.5753 45.9688C35.3206 44.6803 35.3206 42.6269 36.5753 41.3385L42.3067 46.9198ZM35.5987 46.9198C37.4365 48.807 40.4689 48.807 42.3067 46.9198L36.5753 41.3385C37.878 40.0008 40.0274 40.0008 41.3301 41.3385L35.5987 46.9198ZM30.2677 27.9257C32.0574 27.9257 33.5083 29.3765 33.5083 31.1663H25.5083C25.5083 33.7948 27.6391 35.9257 30.2677 35.9257V27.9257ZM39.5042 39.4636C37.8881 37.804 35.5117 37.5783 33.6913 38.4516L37.1517 45.6645C36.148 46.1461 34.757 46.0555 33.7728 45.0449L39.5042 39.4636Z" fill="white" mask="url(#path-9-inside-1_95_39)"></path>
    <rect x="29.5" y="19" width="4" height="1.5" transform="rotate(-90 29.5 19)" fill="white"></rect>
    <rect x="22.5" y="15" width="15.5" height="1.5" rx="0.75" fill="white"></rect>
  </symbol>
</svg>
